<?xml version="1.0" encoding="UTF-8" standalone="no"?>
<svg
   xmlns:dc="http://purl.org/dc/elements/1.1/"
   xmlns:cc="http://creativecommons.org/ns#"
   xmlns:rdf="http://www.w3.org/1999/02/22-rdf-syntax-ns#"
   xmlns:svg="http://www.w3.org/2000/svg"
   xmlns="http://www.w3.org/2000/svg"
   xmlns:sodipodi="http://sodipodi.sourceforge.net/DTD/sodipodi-0.dtd"
   xmlns:inkscape="http://www.inkscape.org/namespaces/inkscape"
   inkscape:version="1.0 (6e3e5246a0, 2020-05-07)"
   sodipodi:docname="home-background2.svg"
   id="svg223"
   version="1.1"
   fill="none"
   viewBox="0 0 877.31738 573.04303"
   height="573.04303"
   width="877.31738">
  <metadata
     id="metadata227">
    <rdf:RDF>
      <cc:Work
         rdf:about="">
        <dc:format>image/svg+xml</dc:format>
        <dc:type
           rdf:resource="http://purl.org/dc/dcmitype/StillImage" />
        <dc:title></dc:title>
      </cc:Work>
    </rdf:RDF>
  </metadata>
  <sodipodi:namedview
     inkscape:current-layer="svg223"
     inkscape:window-maximized="1"
     inkscape:window-y="27"
     inkscape:window-x="0"
     inkscape:cy="270.13598"
     inkscape:cx="123.10233"
     inkscape:zoom="0.84545455"
     showgrid="false"
     id="namedview225"
     inkscape:window-height="704"
     inkscape:window-width="1366"
     inkscape:pageshadow="2"
     inkscape:pageopacity="0"
     guidetolerance="10"
     gridtolerance="10"
     objecttolerance="10"
     borderopacity="1"
     bordercolor="#666666"
     pagecolor="#ffffff" />
  <path
     style="fill:url(#paint0_linear);stroke-width:0.955863"
     id="path2"
     fill="url(#paint0_linear)"
     d="M 867.39238,573.04302 H 0.58648318 C -10.388397,438.00029 135.32938,352.90534 214.49738,306.67256 c 10.285,-6.00558 19.446,-11.35605 26.995,-16.07425 33.088,-20.68283 57.624,-65.84661 83.719,-113.88115 48.076,-88.494728 101.443,-186.730587 223.332,-159.561418 107.163,23.948928 268.221,125.850538 328.774,278.295998 V 548.6452 c -3.004,8.06956 -6.309,16.20308 -9.925,24.39782 z"
     clip-rule="evenodd"
     fill-rule="evenodd"
     opacity="0.5" />
  <path
     id="path4"
     fill="#f0f0f5"
     d="m 476.31738,465 c -125.921,0 -228,10.297 -228,23 0,12.703 102.079,23 228,23 125.921,0 228,-10.297 228,-23 0,-12.703 -102.079,-23 -228,-23 z" />
  <path
     id="path6"
     fill="#965450"
     d="m 682.69738,398.817 c 0,0 -32.348,92.239 -35.814,92.239 -3.466,0 -72.784,21.907 -11.553,-5.765 0,0 6.932,-100.31 17.33,-104.922 10.397,-4.611 30.037,18.448 30.037,18.448 z" />
  <path
     id="path8"
     fill="#76413b"
     d="m 658.43638,465.229 c 10.513,-27.326 24.262,-66.412 24.262,-66.412 0,0 -19.641,-23.059 -30.038,-18.448 -6.701,2.998 -12.015,46.12 -14.904,76.097 6.932,2.768 13.748,5.765 20.68,8.763 z" />
  <path
     id="path10"
     fill="#051f38"
     d="m 625.27938,490.249 c 0,0 -2.657,6.111 22.759,-0.346 l -1.155,3.459 c 0,0 -71.628,16.834 -21.604,-3.113 z" />
  <path
     id="path12"
     fill="#965450"
     d="m 663.05738,359.731 c 0,0 50.024,84.053 47.829,86.705 -2.195,2.651 -29.922,69.755 -11.9,5.073 0,0 -72.552,-69.756 -69.433,-80.709 3.235,-10.838 33.504,-11.069 33.504,-11.069 z" />
  <path
     id="path14"
     fill="#051f38"
     d="m 696.44538,462.347 c 0,0 3.004,5.995 14.326,-17.641 l 1.964,3.113 c -0.116,0 -33.157,65.72 -16.29,14.528 z" />
  <path
     id="path16"
     fill="#76413b"
     d="m 692.17138,409.771 c -13.402,-23.637 -29.114,-50.04 -29.114,-50.04 0,0 -30.269,0.231 -33.504,11.069 -2.079,7.033 27.728,38.855 48.87,60.301 0.115,0.115 8.318,-8.993 13.748,-21.33 z" />
  <path
     id="path18"
     fill="#6633cc"
     d="m 694.82738,233.364 c 0,0 -30.616,-34.013 -48.523,-12.683 -17.907,21.33 -45.634,91.662 -41.591,120.487 2.427,16.949 18.716,35.051 31.771,47.157 l -10.975,61.8 c 0,0 45.056,12.106 42.168,12.106 -1.733,0 44.479,-123.945 49.1,-163.147 4.622,-39.201 -21.95,-65.72 -21.95,-65.72 z" />
  <path
     id="path20"
     fill="#352c38"
     d="m 671.37638,240.974 c 8.549,-0.116 17.907,-1.269 26.109,-4.612 -1.617,-1.96 -2.657,-2.998 -2.657,-2.998 0,0 -30.615,-34.013 -48.522,-12.683 -2.773,3.344 -5.777,7.725 -8.781,13.029 10.052,5.534 22.76,7.494 33.851,7.264 z"
     opacity="0.2" />
  <path
     id="path22"
     fill="#352c38"
     d="m 625.51038,257.461 c -12.708,28.94 -23.452,64.913 -20.795,83.592 2.31,16.833 18.485,34.82 31.539,46.926 4.622,-31.361 13.055,-74.944 18.139,-100.079 -12.593,-7.148 -22.991,-17.41 -28.883,-30.439 z"
     opacity="0.2" />
  <path
     id="path24"
     fill="#965450"
     d="m 606.44838,165.337 -18.485,35.743 c 0,0 -32.348,-17.871 -36.97,-17.871 -4.621,0 -26.571,0.576 -16.174,5.188 0,0 -4.621,2.882 0.578,4.035 0,0 -4.621,4.036 1.155,4.612 l 13.286,-0.576 c 0,0 26.572,24.213 39.858,27.671 13.286,3.459 34.659,-41.507 34.659,-41.507 z" />
  <path
     id="path26"
     fill="#76413b"
     d="m 609.45238,190.934 c 2.888,1.038 5.892,2.076 8.896,3.113 3.697,-6.456 6.007,-11.53 6.007,-11.53 l -17.907,-17.294 -10.167,19.6 c 4.044,2.537 8.55,4.497 13.171,6.111 z" />
  <path
     id="path28"
     fill="#34cb79"
     d="m 629.55338,148.043 c 0,0 -17.329,-2.882 -23.684,6.342 -6.354,9.223 -9.242,24.212 -9.242,24.212 l 24.839,12.107 z" />
  <path
     id="path30"
     fill="#161826"
     d="m 619.96538,180.673 c -6.354,-4.958 -13.633,-11.184 -18.369,-18.679 -3.466,8.071 -5.084,16.488 -5.084,16.488 l 24.839,12.106 1.502,-7.84 c -0.924,-0.576 -1.964,-1.268 -2.888,-2.075 z"
     opacity="0.1" />
  <path
     id="path32"
     fill="#23173b"
     d="m 508.01638,178.943 c 0.693,1.845 -0.346,3.92 -2.195,4.612 l -13.632,4.958 c -1.849,0.692 -3.928,-0.346 -4.622,-2.191 l -5.429,-15.104 c -0.694,-1.845 0.346,-3.92 2.195,-4.612 l 13.632,-4.958 c 1.849,-0.691 3.928,0.346 4.621,2.191 z" />
  <path
     id="path34"
     fill="#322153"
     d="m 518.99138,167.644 -42.746,15.335 c -7.509,2.651 -11.321,10.953 -8.664,18.447 l 13.17,36.55 c 2.657,7.494 10.975,11.299 18.485,8.647 l 42.746,-15.334 c 7.509,-2.652 11.322,-10.954 8.665,-18.448 l -13.171,-36.55 c -2.772,-7.494 -10.975,-11.414 -18.485,-8.647 z m 27.497,48.541 c 1.039,2.997 -0.463,6.341 -3.466,7.379 l -18.37,-50.732 c 3.004,-1.037 6.355,0.462 7.394,3.459 z" />
  <path
     id="path36"
     fill="#6633cc"
     d="m 505.24338,163.608 c 0.578,1.615 -0.231,3.459 -1.848,4.036 l -19.409,7.033 c -1.618,0.577 -3.466,-0.23 -4.044,-1.845 l -1.617,-4.496 c -0.578,-1.614 0.231,-3.459 1.848,-4.036 l 19.409,-7.033 c 1.618,-0.576 3.466,0.231 4.044,1.845 z" />
  <path
     id="path38"
     fill="#965450"
     d="m 532.50838,185.515 c 0,0 7.279,-2.536 8.55,-1.038 1.155,1.384 -6.123,3.459 -5.777,3.575 0.231,0.115 7.856,-1.614 8.549,0 0.694,1.614 -8.087,4.496 -8.087,4.496 0,0 8.318,-2.306 8.896,-0.576 0.578,1.729 -8.665,4.266 -8.665,4.266 l -0.462,-3.805 -0.577,-4.381 z" />
  <path
     id="path40"
     fill="#965450"
     d="m 542.79138,183.555 c 0,0 -5.661,-3.805 -5.661,-5.073 -0.116,-1.384 15.019,4.958 15.019,4.958 z" />
  <path
     id="path42"
     fill="#76413b"
     d="m 654.39238,145.161 c -1.155,2.075 4.506,-46.2349 4.506,-46.2349 l -26.225,17.6409 c 0,0 2.31,30.9 -0.578,31.015 -1.155,0 -5.661,1.73 -10.629,3.574 1.156,5.765 3.466,7.033 5.43,12.568 14.673,-0.115 30.616,-0.461 39.627,-13.836 -5.199,-1.729 -10.629,-7.61 -12.131,-4.727 z" />
  <path
     id="path44"
     fill="#34cb79"
     d="m 629.55338,148.043 -1.155,-4.035 28.883,-6.342 1.155,6.918 c 0,0 34.659,11.53 39.28,37.472 4.621,25.942 2.311,42.661 -2.888,51.308 0,0 -40.436,5.765 -57.765,-2.882 -17.33,-8.648 -35.237,-73.215 -25.994,-78.98 9.242,-5.765 18.484,-3.459 18.484,-3.459 z" />
  <path
     id="path46"
     fill="#161826"
     d="m 667.33238,219.874 c -13.864,-0.807 -30.847,-2.421 -42.4,-10.953 -2.195,-1.614 -4.159,-3.344 -6.007,-5.304 5.199,12.798 11.668,23.636 18.138,26.865 17.33,8.647 57.765,2.882 57.765,2.882 2.311,-3.805 4.044,-9.224 4.852,-16.372 -10.397,3.113 -21.257,3.574 -32.348,2.882 z"
     opacity="0.1" />
  <path
     id="path48"
     fill="#965450"
     d="m 665.94538,199.927 29.46,-2.306 c 0,0 -7.509,51.884 -16.174,69.756 -8.664,17.871 -48.522,88.203 -32.926,49.001 0,0 -20.217,30.555 -2.888,-0.576 0,0 -19.062,24.789 -2.311,-1.729 0,0 -19.64,22.483 1.156,-9.224 0,0 -15.597,7.494 1.733,-5.189 l 16.752,-43.813 z" />
  <path
     id="path50"
     fill="#76413b"
     d="m 694.71238,201.772 c 0.463,-2.652 0.694,-4.266 0.694,-4.266 l -29.461,2.306 -0.231,2.998 c 9.589,0 19.294,-0.461 28.998,-1.038 z" />
  <path
     id="path52"
     fill="#051f38"
     d="m 635.09938,67.9108 c 0,0 14.673,-8.5321 36.161,5.5343 14.21,9.3392 13.517,39.2019 -17.214,58.8019 -36.507,23.291 -18.947,-64.3362 -18.947,-64.3362 z" />
  <path
     id="path54"
     fill="#965450"
     d="m 655.43338,83.822 c 0,0 -16.521,-12.7982 -30.616,-6.572 -17.791,8.0709 -15.943,26.864 -16.29,42.891 -0.462,21.33 16.406,25.366 21.489,25.596 7.509,0.461 38.125,-1.383 25.417,-61.915 z" />
  <path
     id="path56"
     fill="#965450"
     d="m 657.05038,103.769 c 0,0 0.693,-3.229 6.239,-0.692 7.047,3.343 3.235,20.177 -4.622,19.716 -7.971,-0.346 -1.617,-19.024 -1.617,-19.024 z" />
  <path
     id="path58"
     fill="#051f38"
     d="m 657.04938,103.769 c 0,0 0.925,11.529 -1.733,11.645 -2.772,0.115 -5.661,-20.8693 1.964,-20.8693 7.625,0.2306 -0.231,9.2243 -0.231,9.2243 z" />
  <path
     id="path60"
     fill="#34cb79"
     d="m 657.05038,103.769 c 0,0 -5.661,-25.5966 -39.28,-21.3306 0,0 4.852,-9.5698 15.481,-14.0664 14.441,-6.1108 36.045,18.4478 30.037,34.705 0,0 -2.772,0.346 -6.238,0.692 z" />
  <path
     id="path62"
     fill="#051f38"
     d="m 671.26038,80.1324 c 0,0 -1.849,-30.5541 5.545,-30.5541 7.394,0 -0.578,25.7116 -0.578,25.7116 0,0 6.124,-36.7802 23.915,-31.2459 17.792,5.5343 -12.939,31.2459 -12.939,31.2459 0,0 14.094,-12.9134 19.062,-8.5321 4.852,4.266 -20.218,12.9134 -20.218,12.9134 0,0 19.063,-5.5343 21.489,3.6896 2.426,9.1085 -36.854,7.8403 -36.276,-3.2284 z" />
  <path
     id="path64"
     fill="#051f38"
     d="m 609.45138,97.8889 c 0,0 0,-0.2306 0.231,-0.6918 0.231,-0.4612 0.462,-1.0377 1.04,-1.6142 0.578,-0.5765 1.271,-1.2683 2.195,-1.7295 0.231,-0.1153 0.462,-0.2306 0.809,-0.3459 0.231,-0.1153 0.578,-0.2306 0.809,-0.2306 0.346,0 0.577,-0.1153 0.924,-0.1153 h 0.924 c 0.578,0 1.155,0.2306 1.733,0.4612 0.578,0.2306 1.04,0.4612 1.502,0.8071 0.462,0.3459 0.809,0.6918 1.155,1.0377 0.347,0.3459 0.578,0.6918 0.693,1.0377 0.116,0.1153 0.231,0.3459 0.231,0.4612 0.116,0.1153 0.116,0.3459 0.231,0.4612 0.116,0.3459 0.232,0.5765 0.232,0.8071 0.115,0.4611 0.115,0.6917 0.115,0.6917 0,0 -0.231,-0.1153 -0.693,-0.2305 -0.231,-0.1153 -0.462,-0.2307 -0.693,-0.3459 -0.231,-0.1153 -0.578,-0.2306 -0.925,-0.4612 -0.346,-0.1153 -0.577,-0.3459 -0.924,-0.4612 -0.346,-0.1153 -0.693,-0.2306 -1.04,-0.3459 -0.346,-0.1153 -0.693,-0.2306 -1.039,-0.3459 -0.347,0 -0.693,-0.1153 -1.04,-0.1153 h -0.462 c -0.116,0 -0.347,0 -0.578,0 -0.346,0 -0.693,0.1153 -1.04,0.1153 -0.346,0.1153 -0.693,0.1153 -1.039,0.2306 -0.347,0.1153 -0.694,0.1153 -1.04,0.2306 -0.693,0.2306 -1.271,0.3459 -1.618,0.4612 -0.346,0.2306 -0.693,0.2306 -0.693,0.2306 z" />
  <path
     id="path66"
     fill="#ffffff"
     d="m 618.34738,129.595 c 0,0 18.947,0.577 20.217,0.346 1.156,-0.23 -10.628,8.994 -20.217,-0.346 z" />
  <path
     id="path68"
     fill="#1f2733"
     d="m 619.61838,108.496 c 0,0 0,0.23 -0.116,0.692 -0.115,0.461 -0.231,1.037 -0.462,1.844 -0.115,0.346 -0.231,0.807 -0.462,1.153 -0.116,0.231 -0.231,0.462 -0.347,0.577 -0.115,0.23 -0.346,0.461 -0.462,0.576 -0.346,0.346 -0.693,0.807 -1.271,1.038 -0.115,0.115 -0.231,0.115 -0.462,0.231 l -0.346,0.115 c -0.231,0.115 -0.578,0.115 -0.924,0.115 -0.578,0 -1.271,-0.115 -1.733,-0.576 -0.463,-0.346 -0.809,-0.807 -1.04,-1.384 -0.231,-0.461 -0.347,-0.922 -0.462,-1.383 -0.116,-0.462 -0.116,-0.923 -0.116,-1.269 0,-0.807 0,-1.383 0.116,-1.844 0.115,-0.462 0.231,-0.692 0.231,-0.692 0,0 0,1.037 0.346,2.536 0.116,0.692 0.347,1.614 0.809,2.306 0.231,0.346 0.462,0.692 0.809,0.923 0.346,0.23 0.693,0.346 1.04,0.346 0.231,0 0.346,0 0.577,-0.116 l 0.347,-0.115 c 0,0 0.115,-0.115 0.231,-0.115 0.346,-0.116 0.693,-0.462 1.04,-0.692 0.346,-0.346 0.577,-0.692 0.808,-1.038 0.231,-0.346 0.462,-0.692 0.578,-1.038 0.347,-0.691 0.578,-1.268 0.809,-1.614 0.346,-0.346 0.462,-0.576 0.462,-0.576 z" />
  <path
     id="path70"
     fill="#1f2733"
     d="m 638.68038,109.995 c 0,0 0,0.23 -0.115,0.691 -0.116,0.462 -0.231,1.038 -0.462,1.845 -0.116,0.346 -0.231,0.807 -0.463,1.153 -0.115,0.231 -0.231,0.461 -0.346,0.577 -0.116,0.23 -0.347,0.461 -0.462,0.576 -0.347,0.346 -0.693,0.807 -1.271,1.038 -0.116,0.115 -0.231,0.115 -0.462,0.231 l -0.347,0.115 c -0.231,0.115 -0.577,0.115 -0.924,0.115 -0.578,0 -1.271,-0.115 -1.733,-0.576 -0.462,-0.346 -0.809,-0.807 -1.04,-1.384 -0.231,-0.461 -0.346,-0.922 -0.462,-1.384 -0.115,-0.461 -0.115,-0.922 -0.115,-1.268 0,-0.807 0,-1.383 0.115,-1.845 0.116,-0.461 0.231,-0.691 0.231,-0.691 0,0 0,1.037 0.347,2.536 0.115,0.692 0.346,1.614 0.809,2.306 0.231,0.346 0.462,0.692 0.808,0.923 0.347,0.23 0.693,0.345 1.04,0.345 0.231,0 0.347,0 0.578,-0.115 l 0.346,-0.115 c 0,0 0.116,-0.115 0.231,-0.115 0.347,-0.116 0.693,-0.462 1.04,-0.692 0.347,-0.346 0.578,-0.692 0.809,-1.038 0.231,-0.346 0.462,-0.692 0.577,-1.038 0.347,-0.691 0.578,-1.268 0.809,-1.614 0.347,-0.346 0.462,-0.576 0.462,-0.576 z" />
  <path
     id="path72"
     fill="#76413b"
     d="m 659.70738,119.565 c 0.346,-0.462 0.577,-0.808 0.808,-1.269 0.231,-0.461 0.347,-0.922 0.462,-1.383 0,-0.231 0,-0.462 0,-0.692 0,-0.115 -0.115,-0.231 -0.115,-0.231 0,-0.115 -0.116,-0.23 -0.231,-0.23 -0.116,-0.116 -0.116,-0.116 -0.231,-0.231 l -0.231,-0.231 c -0.116,-0.115 -0.231,-0.115 -0.347,-0.115 l -0.346,-0.115 -0.232,-0.115 v -0.231 c -0.346,-1.268 -0.462,-2.421 -0.577,-3.69 -0.116,-0.576 -0.116,-1.268 0,-1.844 0,-0.692 0.115,-1.269 0.346,-1.96 0.116,-0.346 0.347,-0.692 0.694,-0.923 0.346,-0.23 0.808,-0.461 1.155,-0.346 0.462,0 0.693,0.116 1.04,0.231 0.346,0.115 0.693,0.231 0.924,0.461 0.231,0.231 0.578,0.461 0.693,0.692 0.231,0.231 0.347,0.576 0.462,0.807 0.231,0.576 0.347,1.268 0.231,1.845 -0.115,-0.577 -0.231,-1.153 -0.577,-1.73 -0.116,-0.23 -0.347,-0.461 -0.578,-0.692 -0.231,-0.23 -0.462,-0.345 -0.693,-0.461 -0.231,-0.115 -0.462,-0.23 -0.809,-0.23 -0.231,0 -0.578,-0.116 -0.809,-0.116 -0.462,0 -0.693,0.346 -0.808,0.807 -0.347,1.038 -0.231,2.191 -0.231,3.344 0.115,1.153 0.231,2.421 0.462,3.574 l -0.231,-0.345 0.346,0.23 c 0.116,0.115 0.231,0.115 0.347,0.231 l 0.346,0.23 c 0.116,0.116 0.231,0.231 0.347,0.346 0.116,0.116 0.231,0.231 0.231,0.461 0.116,0.116 0.116,0.346 0.116,0.462 0.115,0.345 0,0.576 0,0.922 -0.116,0.576 -0.463,1.038 -0.809,1.499 -0.347,0.346 -0.809,0.807 -1.155,1.038 z" />
  <path
     id="path74"
     fill="#76413b"
     d="m 621.35138,124.407 c -0.578,0.115 -1.04,0.115 -1.502,0.115 -0.462,0 -0.924,-0.115 -1.271,-0.23 -0.462,-0.116 -0.809,-0.346 -1.155,-0.461 -0.231,-0.116 -0.347,-0.231 -0.578,-0.346 -0.231,-0.116 -0.346,-0.231 -0.577,-0.346 l -0.694,-0.577 0.116,-0.461 c 1.155,-3.344 2.31,-6.572 3.466,-9.8 1.155,-3.229 2.426,-6.572 3.697,-9.801 -0.809,3.344 -1.733,6.803 -2.542,10.147 -0.924,3.343 -1.848,6.687 -2.773,10.031 l -0.462,-1.038 c 0.231,0 0.462,0.115 0.693,0.115 0.231,0 0.463,0.115 0.578,0.231 0.347,0.115 0.809,0.346 1.155,0.576 0.347,0.231 0.694,0.577 1.04,0.923 0.231,0.115 0.578,0.461 0.809,0.922 z" />
  <path
     id="path76"
     fill="#051f38"
     d="m 628.16738,96.5048 c 0,0 0.116,-0.3459 0.462,-0.6918 0.231,-0.2306 0.347,-0.4612 0.693,-0.8071 0.347,-0.2306 0.578,-0.5765 1.04,-0.8071 0.347,-0.2306 0.809,-0.5765 1.386,-0.8071 0.463,-0.2306 1.04,-0.4612 1.618,-0.6918 0.578,-0.1153 1.271,-0.3459 1.964,-0.3459 0.347,0 0.693,0 1.04,0 l 1.039,0.1153 c 0.694,0 1.387,0.3459 1.964,0.4612 0.578,0.2306 1.156,0.5765 1.733,0.8071 0.578,0.3459 1.04,0.6918 1.387,1.0377 0.462,0.3459 0.808,0.8071 1.04,1.153 0.346,0.3459 0.577,0.6918 0.808,1.0377 0.231,0.3459 0.347,0.6918 0.462,0.9224 0.231,0.4612 0.347,0.8071 0.347,0.8071 0,0 -0.347,-0.1153 -0.809,-0.3459 -0.231,-0.1153 -0.577,-0.2306 -0.924,-0.4612 -0.347,-0.2306 -0.693,-0.3459 -1.155,-0.4612 -0.347,-0.1153 -0.809,-0.3459 -1.271,-0.5765 -0.462,-0.1153 -0.924,-0.3459 -1.386,-0.4612 -0.463,-0.1153 -0.925,-0.2306 -1.387,-0.3459 -0.462,0 -0.924,-0.2306 -1.502,-0.2306 l -0.693,-0.1153 h -0.693 c -0.462,0 -1.04,0 -1.502,0 -0.462,0 -0.924,0 -1.386,0.1153 -0.462,0 -0.925,0.1153 -1.387,0.1153 -0.808,0.1153 -1.617,0.2306 -2.079,0.3459 -0.462,0.2306 -0.809,0.2306 -0.809,0.2306 z" />
  <path
     id="path78"
     fill="#091e1d"
     d="m 612.22438,490.825 c 0,4.151 -3.35,7.61 -7.509,7.725 -4.159,0 -7.625,-3.343 -7.741,-7.494 l -0.346,-24.443 c 0,-4.151 3.35,-7.61 7.509,-7.725 4.159,0 7.625,3.343 7.74,7.494 z" />
  <path
     id="path80"
     fill="#091e1d"
     d="m 505.82138,492.095 c 0,4.15 -3.35,7.609 -7.509,7.725 -4.159,0 -7.625,-3.344 -7.741,-7.495 l -0.346,-24.443 c 0,-4.151 3.35,-7.61 7.509,-7.725 4.159,0 7.625,3.344 7.741,7.494 z" />
  <path
     id="path82"
     fill="#34cb79"
     d="m 603.67538,473.415 c 0.115,9.455 -7.51,17.18 -16.983,17.295 l -71.166,0.807 c -9.474,0.116 -17.214,-7.494 -17.33,-16.949 l -7.625,-161.648 c -0.115,-9.454 7.51,-17.179 16.983,-17.295 l 82.604,-1.037 c 9.473,-0.116 17.214,7.494 17.329,16.948 z" />
  <path
     id="path84"
     fill="#161826"
     d="m 607.02538,327.793 0.347,-16.026 c -0.116,-9.454 -7.856,-17.064 -17.33,-16.949 l -82.604,1.038 c -9.473,0.115 -17.098,7.84 -16.982,17.295 l 0.808,16.026 z"
     opacity="0.1" />
  <path
     id="path86"
     fill="#34cb79"
     d="m 621.12038,307.732 c 0,2.651 -2.08,4.727 -4.737,4.842 l -134.939,1.614 c -2.657,0 -4.736,-2.075 -4.852,-4.727 l -0.231,-17.064 c 0,-2.652 2.079,-4.727 4.737,-4.843 l 134.938,-1.614 c 2.658,0 4.737,2.076 4.853,4.727 z" />
  <path
     id="path88"
     fill="#ffffff"
     d="m 549.49138,355.119 15.712,-9.454 -3.812,9.8 z" />
  <path
     id="path90"
     fill="#ffffff"
     d="m 543.60038,340.246 c 0,0 1.271,0 3.235,2.997 1.964,2.998 6.354,11.069 6.354,11.069 l 7.971,-3.574 1.849,-3.113 c 0,0 -3.466,-6.918 -6.239,-7.379 z" />
  <path
     id="path92"
     fill="#ffffff"
     d="m 539.20938,342.321 c 0,0 2.426,-2.652 4.39,-1.268 1.964,1.384 5.43,7.149 5.43,7.149 l -5.661,9.915 -10.166,-5.649 z" />
  <path
     id="path94"
     fill="#ffffff"
     d="m 556.65538,367.456 0.808,18.217 -6.816,-7.955 z" />
  <path
     id="path96"
     fill="#ffffff"
     d="m 572.59838,369.301 c 0,0 -0.578,1.153 -4.16,1.499 -3.581,0.346 -12.823,0.346 -12.823,0.346 l -0.694,8.762 1.849,3.113 c 0,0 7.74,0.346 9.473,-1.96 z" />
  <path
     id="path98"
     fill="#ffffff"
     d="m 572.71338,364.458 c 0,0 1.271,3.344 -0.924,4.497 -2.08,1.038 -8.896,1.268 -8.896,1.268 l -6.123,-9.685 9.82,-6.341 z" />
  <path
     id="path100"
     fill="#ffffff"
     d="m 542.78938,367.226 -16.174,-8.533 10.398,-1.844 z" />
  <path
     id="path102"
     fill="#ffffff"
     d="m 533.20238,380.024 c 0,0 -0.693,-1.038 0.809,-4.266 1.501,-3.229 6.123,-11.184 6.123,-11.184 l -7.163,-4.958 -3.582,0.115 c 0,0 -4.159,6.572 -3.119,9.109 z" />
  <path
     id="path104"
     fill="#ffffff"
     d="m 537.24538,382.56 c 0,0 -3.581,-0.692 -3.35,-2.998 0.116,-2.421 3.35,-8.301 3.35,-8.301 l 11.438,-0.346 0.462,11.645 z" />
  <path
     id="path106"
     fill="#051f38"
     d="m 301.56438,445.167 c 0,0 -2.541,40.701 -4.736,41.508 -8.434,2.882 -72.091,19.024 -11.9,-8.071 l -1.617,-29.632 z" />
  <path
     id="path108"
     fill="#041523"
     d="m 298.90738,476.759 c 1.502,-12.337 2.657,-31.592 2.657,-31.592 l -18.253,3.805 1.502,26.404 c 4.505,1.268 9.704,1.383 14.094,1.383 z" />
  <path
     id="path110"
     fill="#ffffff"
     d="m 259.39638,492.786 c -1.848,4.496 31.424,-4.036 37.432,-6.111 0.115,-0.115 0.346,-0.346 0.577,-0.923 -7.509,2.076 -30.268,7.264 -38.009,7.034 z" />
  <path
     id="path112"
     fill="#051f38"
     d="m 340.49838,442.977 c 0,0 3.351,40.7 5.661,41.392 8.549,2.767 72.437,17.641 11.669,-8.302 l 1.039,-29.631 z" />
  <path
     id="path114"
     fill="#041523"
     d="m 343.84938,474.453 c -1.733,-12.221 -3.351,-31.476 -3.351,-31.476 l 18.369,3.459 -0.924,26.403 c -4.506,1.384 -9.704,1.499 -14.094,1.614 z" />
  <path
     id="path116"
     fill="#ffffff"
     d="m 383.70638,489.788 c 1.964,4.496 -31.539,-3.459 -37.547,-5.419 -0.231,0 -0.346,-0.346 -0.577,-0.923 7.509,2.076 30.384,6.803 38.124,6.342 z" />
  <path
     id="path118"
     fill="#34cb79"
     d="m 351.70438,223.218 c 0,0 16.636,134.092 13.286,242.588 0,0 -19.871,5.534 -25.07,1.499 -4.506,-25.712 -3.928,-75.751 -10.629,-112.878 -6.354,-35.05 -8.895,-63.76 -8.895,-63.76 l -2.08,-2.306 c 0,0 -13.633,169.489 -16.636,182.403 -17.214,4.035 -22.644,-0.692 -22.644,-0.692 0,0 -7.856,-212.034 -3.004,-246.278 6.239,-44.735 75.672,-0.576 75.672,-0.576 z" />
  <path
     id="path120"
     fill="#161826"
     d="m 354.70738,251.004 c -1.733,-17.295 -3.12,-27.671 -3.12,-27.671 0,0 -69.317,-44.16 -75.672,0.576 -0.577,4.151 -0.924,10.953 -1.27,19.601 5.198,2.882 70.126,12.106 80.062,7.494 z"
     opacity="0.1" />
  <path
     id="path122"
     fill="#161826"
     d="m 319.12538,286.978 c 0.808,9.108 4.967,38.51 10.166,67.449 6.701,37.242 6.123,87.166 10.629,112.878 5.199,4.035 25.07,-1.499 25.07,-1.499 1.964,-66.758 -3.466,-143.201 -8.087,-192.087 -10.975,6.917 -24.955,10.261 -37.778,13.259 z"
     opacity="0.1" />
  <path
     id="path124"
     fill="#ffb39f"
     d="m 325.01738,105.959 c 0.115,-14.0661 1.155,-32.6292 1.155,-32.6292 l -27.727,-7.6097 c 0,0 0.924,25.1351 1.733,40.4699 -12.593,4.266 -26.919,12.337 -26.919,12.337 l 52.335,13.259 18.601,-17.986 c 0,0 -9.358,-4.728 -19.178,-7.841 z" />
  <path
     id="path126"
     fill="#e09b8d"
     d="m 325.01738,105.959 c 0.115,-14.0661 1.155,-32.6292 1.155,-32.6292 l -27.727,-7.6097 c 0,0 0.924,25.1351 1.733,40.4699 -12.593,4.266 -26.919,12.337 -26.919,12.337 l 52.335,13.259 24.724,-21.215 c 0,0 -15.366,-5.765 -25.301,-4.612 z" />
  <path
     id="path128"
     fill="#ffb39f"
     d="m 296.01938,39.0862 c 0,0 7.278,-23.5209 26.456,-19.8313 19.178,3.6895 21.951,28.7093 24.377,45.5429 2.426,16.9488 -3.004,32.1682 -18.023,34.013 -13.055,1.6142 -35.814,-0.9224 -32.81,-59.7246 z" />
  <path
     id="path130"
     fill="#ffb39f"
     d="m 296.94338,58.8022 c 0,0 -1.155,-3.113 -5.892,0.3459 -6.008,4.3814 0.115,20.5231 7.394,18.7937 7.278,-1.7295 -1.502,-19.1396 -1.502,-19.1396 z" />
  <path
     id="path132"
     fill="#051f38"
     d="m 290.24238,25.5963 c 0.462,-0.1153 9.474,-0.8071 3.466,-0.2306 5.545,5.9955 4.968,7.4944 12.593,8.8779 4.043,12.4523 -3.928,19.9467 -3.928,19.9467 l 2.195,14.9888 -5.777,0.5765 c 0,0 0.116,-10.3769 -4.274,-11.2993 -4.39,-0.9224 -5.661,4.3814 -5.661,4.3814 -9.127,-11.5299 -18.37,-34.1284 1.386,-37.2414 z" />
  <path
     id="path134"
     fill="#051f38"
     d="M 342.57738,17.1795 C 346.27438,8.07089 340.03638,0 340.03638,0 c 1.039,3.34366 0.577,6.45671 -0.463,8.99328 -0.693,-2.53657 -1.964,-5.30373 -4.274,-8.070893 0,0 0.693,9.223913 -11.9,8.070893 -12.593,-1.15299 -34.659,0.57649 -35.583,20.06192 -1.04,19.4855 17.792,5.3037 17.792,5.3037 0,0 37.547,10.4922 42.977,-19.716 z" />
  <path
     id="path136"
     fill="#051f38"
     d="m 324.78638,50.8476 c 0,0 -0.347,0 -0.809,-0.1153 -0.578,-0.1153 -1.271,-0.2306 -2.079,-0.3459 -0.463,-0.1153 -0.809,-0.1153 -1.271,-0.1153 -0.462,-0.1153 -0.924,-0.1153 -1.387,-0.1153 -0.462,0 -0.924,0 -1.502,0 -0.231,0 -0.462,0 -0.693,0 l -0.693,0.1153 c -0.462,0 -0.924,0.1153 -1.502,0.2306 -0.462,0.1153 -0.924,0.2306 -1.386,0.3459 -0.462,0.1153 -0.924,0.3459 -1.386,0.4612 -0.463,0.1153 -0.809,0.3459 -1.271,0.4612 -0.347,0.1153 -0.809,0.2306 -1.04,0.4612 -0.347,0.1153 -0.578,0.2306 -0.809,0.3459 -0.462,0.2306 -0.808,0.3459 -0.808,0.3459 0,0 0.115,-0.3459 0.346,-0.8071 0.116,-0.2306 0.231,-0.5765 0.462,-0.9224 0.231,-0.3459 0.462,-0.6918 0.809,-1.0377 0.347,-0.3459 0.578,-0.8071 1.04,-1.153 0.462,-0.3459 0.924,-0.6918 1.502,-1.0377 0.577,-0.2306 1.155,-0.5765 1.733,-0.8071 0.693,-0.2306 1.27,-0.3459 1.964,-0.4612 l 1.039,-0.1153 c 0.347,0 0.694,0 1.04,0.1153 0.347,0 0.693,0.1153 0.924,0.1153 0.347,0.1153 0.578,0.1153 0.925,0.2306 0.577,0.2306 1.155,0.3459 1.617,0.6918 0.462,0.2306 0.924,0.5765 1.386,0.8071 0.347,0.2306 0.694,0.5765 1.04,0.8071 0.231,0.2306 0.462,0.5765 0.693,0.6918 -0.115,0.4612 0.116,0.8071 0.116,0.8071 z" />
  <path
     id="path138"
     fill="#051f38"
     d="m 344.31038,50.2701 c 0,0 -0.231,-0.1153 -0.693,-0.2306 -0.462,-0.1153 -1.04,-0.3459 -1.618,-0.5765 -0.346,-0.1153 -0.693,-0.2305 -1.039,-0.3458 -0.347,-0.1153 -0.694,-0.2307 -1.04,-0.2307 -0.347,0 -0.693,-0.1152 -1.04,-0.2305 -0.115,0 -0.347,0 -0.462,-0.1153 h -0.462 c -0.347,-0.1153 -0.693,0.1153 -1.04,0 -0.347,0.1153 -0.693,0.1153 -1.04,0.2306 -0.346,0.1153 -0.693,0.2306 -1.039,0.3459 -0.347,0.1153 -0.694,0.2305 -0.925,0.3458 -0.346,0.1153 -0.693,0.2306 -0.924,0.3459 -0.231,0.1153 -0.462,0.2306 -0.693,0.2306 -0.462,0.1153 -0.693,0.2306 -0.693,0.2306 0,0 0,-0.2306 0.231,-0.6918 0.115,-0.2306 0.115,-0.4612 0.346,-0.807 0.116,-0.3459 0.347,-0.5765 0.578,-0.9224 0.231,-0.3459 0.462,-0.6918 0.809,-1.0377 0.346,-0.3459 0.808,-0.5765 1.155,-0.9224 0.462,-0.2306 1.04,-0.4612 1.502,-0.6918 0.578,-0.1153 1.155,-0.2306 1.733,-0.2306 0.346,0 0.577,0 0.924,0 0.347,0 0.578,0.1153 0.809,0.2306 0.231,0 0.577,0.1153 0.808,0.2306 0.232,0.1153 0.463,0.2306 0.694,0.3459 0.924,0.5765 1.617,1.153 2.079,1.8448 0.462,0.6918 0.693,1.2683 0.924,1.7294 0.116,0.6918 0.116,0.9224 0.116,0.9224 z" />
  <path
     id="path140"
     fill="#dd9078"
     d="m 330.10038,51.5384 c 0.693,1.4989 1.387,3.1131 2.08,4.612 0.346,0.807 0.577,1.4988 0.924,2.3059 l 0.924,2.306 0.924,2.306 c 0.347,0.8071 0.578,1.4988 0.925,2.3059 l 0.462,1.153 c 0.115,0.3459 0.346,0.8071 0.462,1.153 0.347,0.6918 0.693,1.3836 1.04,2.1907 l 0.346,0.9224 -0.693,0.3459 c -1.04,0.4612 -2.079,1.0376 -3.235,1.4988 -1.039,0.4612 -2.195,0.9224 -3.35,1.2683 0.924,-0.8071 1.848,-1.4989 2.773,-2.1906 0.924,-0.6918 1.964,-1.3836 2.888,-2.0754 l -0.347,1.2683 c -0.462,-0.6918 -0.924,-1.4989 -1.386,-2.1907 -0.462,-0.6918 -0.809,-1.4989 -1.155,-2.306 l -0.578,-1.153 -0.462,-1.1529 c -0.231,-0.8071 -0.578,-1.6142 -0.809,-2.4213 l -0.693,-2.4213 c -0.231,-0.8071 -0.347,-1.6142 -0.578,-2.4213 -0.115,-1.8447 -0.346,-3.5742 -0.462,-5.3037 z" />
  <path
     id="path142"
     fill="#dd9078"
     d="m 296.59638,74.5981 c -0.462,-0.2306 -0.924,-0.5765 -1.27,-1.0377 -0.347,-0.3459 -0.809,-0.8071 -1.04,-1.3835 -0.116,-0.2306 -0.231,-0.5765 -0.231,-0.9224 0,-0.1153 0,-0.3459 0,-0.4612 0,-0.1153 0.115,-0.3459 0.115,-0.4612 0.116,-0.3459 0.347,-0.5765 0.578,-0.8071 0.115,-0.1153 0.231,-0.2306 0.346,-0.3459 l 0.347,-0.2306 -0.231,0.3459 c 0,-1.2683 0,-2.5366 -0.116,-3.6896 -0.115,-1.2682 -0.231,-2.5365 -0.693,-3.5742 -0.115,-0.2306 -0.231,-0.4612 -0.462,-0.5765 -0.115,-0.1153 -0.346,-0.2306 -0.577,-0.2306 -0.116,0 -0.232,0 -0.347,0.1153 -0.116,0 -0.347,0.1153 -0.462,0.1153 -0.231,0.1153 -0.462,0.2306 -0.693,0.4612 -0.231,0.2306 -0.463,0.3459 -0.578,0.5765 -0.116,0.2306 -0.347,0.4612 -0.462,0.8071 -0.231,0.5765 -0.347,1.153 -0.347,1.8447 -0.231,-0.5765 -0.231,-1.2682 -0.115,-1.96 0,-0.3459 0.115,-0.6918 0.346,-0.9224 0.116,-0.3459 0.347,-0.5765 0.578,-0.8071 l 0.347,-0.3459 0.462,-0.3459 c 0.115,-0.1153 0.346,-0.1153 0.462,-0.2306 0.115,-0.1153 0.346,-0.1153 0.577,-0.2306 0.463,-0.1153 0.925,0 1.271,0.3459 0.347,0.2306 0.578,0.5765 0.693,0.9224 0.347,0.6918 0.463,1.2683 0.694,1.9601 0.115,0.6918 0.231,1.2682 0.231,1.96 0.115,1.2683 0.115,2.5366 0,3.9202 v 0.2306 l -0.231,0.1153 c -0.231,0.1153 -0.462,0.2306 -0.578,0.4612 -0.116,0.1153 -0.347,0.3459 -0.462,0.4612 -0.116,0.1153 -0.116,0.2306 -0.116,0.3459 0,0.1153 -0.115,0.2306 -0.115,0.3459 0,0.2306 0,0.4612 0,0.6917 0.115,0.4612 0.346,0.9224 0.693,1.3836 0.693,0.4612 1.04,0.8071 1.386,1.153 z" />
  <path
     id="path144"
     fill="#1f2733"
     d="m 314.73438,61.8 c 0,0 0.116,0.2306 0.232,0.6917 0.115,0.2306 0.115,0.4612 0.231,0.6918 0.115,0.2306 0.231,0.5765 0.462,0.9224 0.115,0.3459 0.462,0.5765 0.577,0.9224 0.116,0.1153 0.231,0.2306 0.462,0.4612 0.116,0.1153 0.232,0.2306 0.463,0.3459 0.346,0.2306 0.693,0.3459 1.039,0.4612 0.231,0 0.347,0.1153 0.578,0.1153 0.231,0 0.347,0 0.578,-0.1153 l 0.577,-0.2306 0.578,-0.3459 c 0.347,-0.2306 0.578,-0.5765 0.809,-0.9224 0.231,-0.3459 0.346,-0.6918 0.577,-1.0377 0.116,-0.3459 0.231,-0.6918 0.231,-1.153 0,-0.3459 0,-0.6918 0.116,-0.9223 0,-0.3459 0,-0.5765 0,-0.8071 0,-0.4612 0,-0.6918 0,-0.6918 0,0 0.115,0.2306 0.231,0.6918 0.116,0.2306 0.116,0.4612 0.231,0.8071 0,0.3458 0.116,0.6917 0.116,1.0376 0,0.3459 0,0.8071 -0.116,1.2683 -0.115,0.4612 -0.231,0.9224 -0.462,1.3836 -0.231,0.4612 -0.578,0.9224 -1.04,1.2683 l -0.693,0.4612 c -0.231,0.1153 -0.578,0.2306 -0.809,0.3459 -0.231,0 -0.577,0.1153 -0.924,0.1153 -0.231,0 -0.578,-0.1153 -0.809,-0.1153 -0.577,-0.1153 -1.039,-0.4612 -1.502,-0.8071 -0.462,-0.3459 -0.693,-0.8071 -0.924,-1.153 -0.231,-0.4612 -0.462,-0.8071 -0.577,-1.153 -0.116,-0.3459 -0.232,-0.6918 -0.232,-1.0377 0,-0.3459 0,-0.5765 0,-0.8071 0,-0.4611 0,-0.6917 0,-0.6917 z" />
  <path
     id="path146"
     fill="#1f2733"
     d="m 335.64638,58.341 c 0,0 0.115,0.2306 0.231,0.6918 0.115,0.2306 0.115,0.4612 0.231,0.6918 0.115,0.2306 0.231,0.5765 0.462,0.9224 0.115,0.3459 0.462,0.5765 0.578,0.9224 0.115,0.1153 0.231,0.2306 0.462,0.4612 0.115,0.1153 0.231,0.2306 0.462,0.3459 0.346,0.2306 0.693,0.3459 1.04,0.4612 0.231,0 0.346,0.1153 0.577,0.1153 0.231,0 0.347,0 0.578,-0.1153 l 0.577,-0.2306 0.578,-0.3459 c 0.347,-0.2306 0.578,-0.5765 0.809,-0.9224 0.231,-0.3459 0.346,-0.6918 0.577,-1.0377 0.116,-0.3459 0.232,-0.6918 0.232,-1.153 0,-0.3459 0,-0.6918 0.115,-0.9224 0,-0.3459 0,-0.5765 0,-0.8071 0,-0.4612 0,-0.6917 0,-0.6917 0,0 0.116,0.2305 0.231,0.6917 0.116,0.2306 0.116,0.4612 0.231,0.8071 0,0.3459 0.116,0.6918 0.116,1.0377 0,0.3459 0,0.8071 -0.116,1.2683 -0.115,0.4612 -0.231,0.9224 -0.462,1.3836 -0.231,0.4612 -0.578,0.9224 -1.04,1.2683 l -0.693,0.4612 c -0.231,0.1153 -0.578,0.2306 -0.809,0.3458 -0.231,0 -0.577,0.1154 -0.924,0.1154 -0.231,0 -0.577,-0.1154 -0.809,-0.1154 -0.577,-0.1152 -1.039,-0.4611 -1.501,-0.807 -0.463,-0.3459 -0.694,-0.8071 -0.925,-1.153 -0.231,-0.4612 -0.462,-0.8071 -0.577,-1.153 -0.116,-0.3459 -0.231,-0.6918 -0.231,-1.0377 0,-0.3459 0,-0.5765 0,-0.8071 0,-0.4612 0,-0.6918 0,-0.6918 z" />
  <path
     id="path148"
     fill="#dd9078"
     d="m 316.55438,78.1034 c 0,0 -0.116,0 0,0.1153 0.115,0.1153 0.346,0.2306 0.578,0.3459 0.462,0.3459 1.27,0.6918 2.195,1.153 0.924,0.4612 2.079,0.9224 3.234,1.2682 0.578,0.2306 1.271,0.3459 1.849,0.4612 0.578,0.1153 1.271,0.2306 1.964,0.3459 1.271,0.1153 2.542,0.2306 3.812,0.1153 1.271,-0.1153 2.311,-0.3459 3.351,-0.6918 0.924,-0.3459 1.733,-0.5764 2.31,-0.807 0.578,-0.2306 0.925,-0.3459 0.925,-0.3459 0,0 -0.231,0.3459 -0.694,0.6917 -0.462,0.4612 -1.155,1.0377 -2.079,1.6142 -0.924,0.5765 -2.195,1.153 -3.582,1.3836 -1.386,0.3459 -2.888,0.3459 -4.39,0.2306 -0.693,-0.1153 -1.502,-0.2306 -2.195,-0.4612 -0.693,-0.2306 -1.386,-0.4612 -1.964,-0.8071 -1.271,-0.5765 -2.31,-1.2683 -3.119,-1.9601 -0.809,-0.6917 -1.502,-1.3835 -1.849,-1.96 -0.231,-0.2306 -0.346,-0.4612 -0.346,-0.6918 -0.116,0 -0.116,0.1153 0,0 z" />
  <path
     id="path150"
     fill="#6633cc"
     d="m 334.60638,105.613 c 0,0 29.576,-3.113 33.388,19.486 3.813,22.714 3.466,28.824 3.466,28.824 l -28.882,-4.266 z" />
  <path
     id="path152"
     fill="#6633cc"
     d="m 359.55938,123.83 c -1.733,-14.413 -16.405,-17.526 -24.954,-18.218 -3.813,5.304 -9.127,9.109 -16.405,9.34 -8.319,0.23 -15.944,-2.652 -19.987,-8.994 -12.939,1.499 -25.763,5.189 -28.652,13.951 -6.123,18.448 -0.808,119.911 -0.808,119.911 0,0 51.757,8.878 94.272,0.807 -0.115,0.115 -1.155,-97.543 -3.466,-116.797 z" />
  <path
     id="path154"
     fill="#352c38"
     d="m 266.55938,169.258 c 0.231,33.437 2.195,70.678 2.195,70.678 0,0 51.757,8.878 94.272,0.807 0,0 -0.809,-74.137 -2.542,-105.959 -31.308,11.645 -62.617,23.175 -93.925,34.474 z"
     opacity="0.2" />
  <path
     id="path156"
     fill="#e1edff"
     d="m 298.44438,196.007 c 0,0 -1.155,-3.343 4.159,-5.534 5.315,-2.191 60.076,-16.488 63.542,-16.026 3.465,0.461 45.865,5.534 46.558,7.84 0.693,2.306 -50.718,18.909 -50.718,18.909 z" />
  <path
     id="path158"
     fill="#c0d5ff"
     d="m 364.87438,205.577 c 0,0 -59.96,-0.23 -64.581,-5.649 -4.621,-5.419 -4.737,-9.34 21.489,-4.728 26.225,4.612 41.359,3.92 41.359,3.92 0,0 48.061,-22.367 49.678,-16.948 1.502,5.534 6.585,4.15 -47.945,23.405 z" />
  <path
     id="path160"
     fill="#b1c5e8"
     d="m 412.70438,182.287 c -1.502,-5.419 -49.678,16.949 -49.678,16.949 0,0 -0.116,0 -0.462,0 1.039,2.075 1.848,4.035 2.772,6.226 54.068,-19.14 48.985,-17.756 47.368,-23.175 z" />
  <path
     id="path162"
     fill="#e1edff"
     d="m 296.71138,183.67 c 0,0 -1.156,-3.343 4.159,-5.534 5.314,-2.191 60.075,-16.488 63.541,-16.026 3.466,0.461 45.865,5.534 46.559,7.84 0.693,2.306 -50.718,18.909 -50.718,18.909 z" />
  <path
     id="path164"
     fill="#c0d5ff"
     d="m 363.14138,193.356 c 0,0 -59.96,-0.231 -64.581,-5.65 -4.621,-5.419 -4.737,-9.339 21.488,-4.727 26.226,4.612 41.36,3.92 41.36,3.92 0,0 48.06,-22.368 49.678,-16.949 1.386,5.419 6.585,4.035 -47.945,23.406 z" />
  <path
     id="path166"
     fill="#b1c5e8"
     d="m 410.97138,170.065 c -1.502,-5.419 -49.678,16.949 -49.678,16.949 0,0 -0.116,0 -0.462,0 1.039,2.076 1.848,4.036 2.772,6.226 53.953,-19.255 48.869,-17.871 47.368,-23.175 z" />
  <path
     id="path168"
     fill="#e1edff"
     d="m 296.48038,173.639 c 0,0 -1.04,-2.882 4.043,-4.842 5.084,-1.96 58.112,-14.528 61.462,-14.067 3.351,0.462 44.364,4.958 45.057,6.918 0.693,1.96 -49.1,16.719 -49.1,16.719 z" />
  <path
     id="path170"
     fill="#c0d5ff"
     d="m 360.71538,182.172 c 0,0 -57.996,-0.231 -62.501,-4.958 -4.506,-4.728 -4.506,-8.187 20.795,-4.151 25.301,4.035 39.973,3.459 39.973,3.459 0,0 46.559,-19.716 48.061,-14.874 1.502,4.728 6.469,3.459 -46.328,20.524 z" />
  <path
     id="path172"
     fill="#b1c5e8"
     d="m 407.04338,161.648 c -1.502,-4.727 -48.061,14.874 -48.061,14.874 0,0 -0.115,0 -0.462,0 0.924,1.729 1.849,3.574 2.657,5.419 52.335,-16.834 47.368,-15.565 45.866,-20.293 z" />
  <path
     id="path174"
     fill="#ffffff"
     d="m 298.09738,160.15 c 0,0 -0.924,-2.883 4.275,-4.728 5.199,-1.729 58.574,-12.337 61.924,-11.76 3.35,0.461 44.132,6.572 44.71,8.532 0.578,1.96 -49.678,14.758 -49.678,14.758 z" />
  <path
     id="path176"
     fill="#c0d5ff"
     d="m 361.98638,171.102 c 0,0 -57.996,-2.421 -62.27,-7.264 -4.275,-4.958 -4.275,-8.301 20.91,-3.344 25.186,4.958 39.858,4.958 39.858,4.958 0,0 47.252,-17.871 48.523,-13.144 1.386,4.727 6.354,3.69 -47.021,18.794 z" />
  <path
     id="path178"
     fill="#b1c5e8"
     d="m 409.00738,152.309 c -1.271,-4.842 -48.523,13.144 -48.523,13.144 0,0 -0.115,0 -0.462,0 0.924,1.845 1.733,3.69 2.426,5.535 52.797,-14.989 47.83,-13.952 46.559,-18.679 z" />
  <path
     id="path180"
     fill="#ffb39f"
     d="m 267.94538,162.34 28.536,-6.918 c 0,0 6.123,41.508 7.74,43.814 1.618,2.306 49.332,4.612 49.332,4.612 l 13.863,0.807 c 0,0 -58.574,24.558 -75.441,14.643 -17.098,-10.147 -24.03,-56.958 -24.03,-56.958 z" />
  <path
     id="path182"
     fill="#e09b8d"
     d="m 270.71838,167.298 c 8.78,-2.652 17.329,-5.88 26.34,-7.84 -0.346,-2.537 -0.577,-4.036 -0.577,-4.036 l -28.536,6.918 c 0,0 0.347,2.076 0.924,5.535 0.693,-0.231 1.271,-0.462 1.849,-0.577 z" />
  <path
     id="path184"
     fill="#ffb39f"
     d="m 362.10238,208.46 c 0,0 21.719,-5.765 21.719,-10.147 0,-4.381 -7.856,-20.177 -2.31,0.923 0,0 -11.553,-28.594 -2.311,1.383 0,0 -9.011,-23.29 -2.888,0.577 0,0 -9.243,-16.142 -2.542,1.153 l -8.318,3.113 -19.987,-0.231 -10.628,10.377 z" />
  <path
     id="path186"
     fill="#ffb39f"
     d="m 412.93538,187.36 c 0,0 -11.553,-28.594 -2.311,1.384 0,0 -9.011,-23.291 -2.888,0.576 0,0 -9.243,-16.142 -3.351,1.268 l -6.354,2.998 c 2.311,0.231 5.315,0.115 7.741,-0.692 7.394,-1.499 9.473,-4.035 9.473,-6.341 0,-4.381 -7.856,-20.177 -2.31,0.807 z" />
  <path
     id="path188"
     fill="#091e1d"
     d="m 442.39538,490.825 c 0,4.151 -3.35,7.61 -7.509,7.725 -4.16,0 -7.625,-3.343 -7.741,-7.494 l -0.347,-24.443 c 0,-4.151 3.351,-7.61 7.51,-7.725 4.159,0 7.625,3.343 7.74,7.494 z" />
  <path
     id="path190"
     fill="#091e1d"
     d="m 335.99238,492.095 c 0,4.15 -3.35,7.609 -7.509,7.725 -4.159,0 -7.625,-3.344 -7.741,-7.495 l -0.346,-24.443 c 0,-4.151 3.35,-7.61 7.509,-7.725 4.159,0 7.625,3.344 7.741,7.494 z" />
  <path
     id="path192"
     fill="#322153"
     d="m 433.84638,473.415 c 0.116,9.455 -7.509,17.18 -16.983,17.295 l -71.166,0.807 c -9.473,0.116 -17.214,-7.494 -17.329,-16.949 l -7.625,-161.648 c -0.116,-9.454 7.509,-17.179 16.982,-17.295 l 82.604,-1.037 c 9.474,-0.116 17.214,7.494 17.33,16.948 z" />
  <path
     id="path194"
     fill="#1c0c3b"
     d="m 437.19638,327.793 0.347,-16.026 c -0.115,-9.454 -7.856,-17.064 -17.329,-16.949 l -82.604,1.038 c -9.474,0.115 -17.099,7.84 -16.983,17.295 l 0.809,16.026 z" />
  <path
     id="path196"
     fill="#322153"
     d="m 451.29138,307.732 c 0,2.651 -2.079,4.727 -4.737,4.842 l -134.938,1.614 c -2.658,0 -4.737,-2.075 -4.853,-4.727 l -0.231,-17.064 c 0,-2.652 2.08,-4.727 4.737,-4.843 l 134.939,-1.614 c 2.657,0 4.737,2.076 4.852,4.727 z" />
  <path
     id="path198"
     fill="#ffffff"
     d="m 379.66338,355.119 15.712,-9.454 -3.813,9.8 z" />
  <path
     id="path200"
     fill="#ffffff"
     d="m 373.77138,340.246 c 0,0 1.27,0 3.234,2.997 1.964,2.998 6.355,11.069 6.355,11.069 l 7.971,-3.574 1.849,-3.113 c 0,0 -3.466,-6.918 -6.239,-7.379 z" />
  <path
     id="path202"
     fill="#ffffff"
     d="m 369.38138,342.321 c 0,0 2.426,-2.652 4.39,-1.268 1.964,1.384 5.43,7.149 5.43,7.149 l -5.661,9.915 -10.167,-5.649 z" />
  <path
     id="path204"
     fill="#ffffff"
     d="m 386.82638,367.456 0.808,18.217 -6.816,-7.955 z" />
  <path
     id="path206"
     fill="#ffffff"
     d="m 402.76838,369.301 c 0,0 -0.577,1.153 -4.159,1.499 -3.581,0.346 -12.823,0.346 -12.823,0.346 l -0.694,8.762 1.849,3.114 c 0,0 7.74,0.345 9.473,-1.961 z" />
  <path
     id="path208"
     fill="#ffffff"
     d="m 402.88438,364.458 c 0,0 1.271,3.344 -0.924,4.497 -2.08,1.038 -8.896,1.268 -8.896,1.268 l -6.123,-9.685 9.82,-6.341 z" />
  <path
     id="path210"
     fill="#ffffff"
     d="m 373.07738,367.226 -16.175,-8.532 10.283,-1.845 z" />
  <path
     id="path212"
     fill="#ffffff"
     d="m 363.37338,380.024 c 0,0 -0.693,-1.038 0.809,-4.266 1.502,-3.229 6.123,-11.184 6.123,-11.184 l -7.163,-4.958 -3.581,0.115 c 0,0 -4.159,6.572 -3.12,9.109 z" />
  <path
     id="path214"
     fill="#ffffff"
     d="m 367.53238,382.56 c 0,0 -3.581,-0.692 -3.35,-2.998 0.115,-2.421 3.35,-8.301 3.35,-8.301 l 11.438,-0.346 0.462,11.645 z" />
  <defs
     id="defs221">
    <linearGradient
       gradientTransform="matrix(1,0,0,0.9136732,-0.68261682,-29.981298)"
       gradientUnits="userSpaceOnUse"
       y2="652"
       x2="868"
       y1="153.5"
       x1="369.5"
       id="paint0_linear">
      <stop
         id="stop216"
         stop-color="white" />
      <stop
         id="stop218"
         stop-opacity="0"
         stop-color="white"
         offset="1" />
    </linearGradient>
  </defs>
</svg>
